<?xml version="1.0" encoding="UTF-8"?>
<svg width="200" height="200" viewBox="0 0 200 200" xmlns="http://www.w3.org/2000/svg" fill="none">
    <rect width="200" height="200" fill="#4CAF50"/>
    <g transform="translate(100, 100) scale(1.2)">
        <!-- Body -->
        <ellipse cx="0" cy="20" rx="10" ry="30" fill="white"/>
        
        <!-- Head -->
        <circle cx="0" cy="-10" r="8" fill="white"/>
        
        <!-- Wings -->
        <path d="M0 0 C -30 -40, -50 -60, -60 -40 C -70 -20, -70 20, -60 40 C -50 60, -30 40, 0 0" fill="white" opacity="0.8"/>
        <path d="M0 0 C 30 -40, 50 -60, 60 -40 C 70 -20, 70 20, 60 40 C 50 60, 30 40, 0 0" fill="white" opacity="0.8"/>
        
        <!-- Tail -->
        <line x1="0" y1="50" x2="0" y2="80" stroke="white" stroke-width="3"/>
        <line x1="-5" y1="50" x2="-10" y2="70" stroke="white" stroke-width="2"/>
        <line x1="5" y1="50" x2="10" y2="70" stroke="white" stroke-width="2"/>
    </g>
</svg>
