<?xml version="1.0" encoding="UTF-8"?>
<svg width="200" height="200" viewBox="0 0 200 200" xmlns="http://www.w3.org/2000/svg" fill="none">
    <rect width="200" height="200" fill="#4CAF50"/>
    <g transform="translate(50, 100) scale(1.2)">
        <!-- Body -->
        <ellipse cx="60" cy="0" rx="10" ry="30" fill="white"/>
        
        <!-- Head -->
        <circle cx="75" cy="-10" r="8" fill="white"/>
        
        <!-- Wings -->
        <path d="M60 0 C 40 -40, 20 -60, 10 -40 C 0 -20, 0 20, 10 40 C 20 60, 40 40, 60 0" fill="white" opacity="0.8"/>
        <path d="M60 0 C 80 -40, 100 -60, 110 -40 C 120 -20, 120 20, 110 40 C 100 60, 80 40, 60 0" fill="white" opacity="0.8"/>
        
        <!-- Legs -->
        <line x1="60" y1="10" x2="40" y2="20" stroke="white" stroke-width="2"/>
        <line x1="60" y1="10" x2="50" y2="30" stroke="white" stroke-width="2"/>
        <line x1="60" y1="10" x2="70" y2="30" stroke="white" stroke-width="2"/>
        <line x1="60" y1="10" x2="80" y2="20" stroke="white" stroke-width="2"/>
        
        <!-- Tail -->
        <line x1="60" y1="30" x2="60" y2="50" stroke="white" stroke-width="3"/>
        <line x1="58" y1="30" x2="55" y2="45" stroke="white" stroke-width="2"/>
        <line x1="62" y1="30" x2="65" y2="45" stroke="white" stroke-width="2"/>
    </g>
</svg>
