<svg width="200" height="200" viewBox="0 0 200 200" xmlns="http://www.w3.org/2000/svg">
  <!-- Optional background -->
  <rect width="200" height="200" fill="#00A884" />
  
  <!-- Group all butterfly paths; use white stroke, no fill, thinner lines -->
  <g fill="none" stroke="#FFFFFF" stroke-width="2" stroke-linecap="round" stroke-linejoin="round">
    
    <!-- Head (circle) -->
    <circle cx="100" cy="40" r="5" />
    
    <!-- Antennae -->
    <path d="M 97 35 Q 90 20 85 20" />
    <path d="M 103 35 Q 110 20 115 20" />
    
    <!-- Body (vertical line) -->
    <line x1="100" y1="45" x2="100" y2="110" />
    
    <!-- Top-right wing (loop) -->
    <path d="
      M 100 50
      C 120 20, 160 20, 140 50
      C 160 80, 120 80, 100 50
    " />
    
    <!-- Top-left wing (loop) -->
    <path d="
      M 100 50
      C 80 20, 40 20, 60 50
      C 40 80, 80 80, 100 50
    " />
    
    <!-- Bottom-right wing (loop) -->
    <path d="
      M 100 80
      C 120 60, 140 60, 130 80
      C 140 100, 120 100, 100 80
    " />
    
    <!-- Bottom-left wing (loop) -->
    <path d="
      M 100 80
      C 80 60, 60 60, 70 80
      C 60 100, 80 100, 100 80
    " />
  </g>
</svg>
